<?xml version="1.0" encoding="UTF-8"?>
<svg id="Capa_1" data-name="Capa 1" xmlns="http://www.w3.org/2000/svg" viewBox="0 0 849.7 175.66">
  <defs>
    <style>
      .cls-1 {
        fill: #263d3c;
      }

      .cls-2 {
        fill: #2eb3a9;
      }
    </style>
  </defs>
  <path class="cls-1" d="M789.22,76.38c-7.4-1.46-12.95-2.6-16.65-3.4l.4.2c-.67-.27-1.4-.4-2.2-.4h.6c-9.73-1.98-14.6-5.82-14.6-11.51,0-4.9,2.33-8.73,7-11.52,4-2.38,8.6-3.57,13.8-3.57,16.13,0,24.2,6.28,24.2,18.85,0,3.7,1.78,5.55,5.33,5.55h4.14c3.55,0,5.33-1.86,5.33-5.57,0-22.42-13.27-33.63-39.8-33.63-9.2,0-17,2.33-23.4,6.97-7.6,5.58-11.4,13.21-11.4,22.89,0,15,9.24,24.09,27.72,27.28,3.3.53,5.74.93,7.33,1.19,6.07,1.19,9.31,1.79,9.7,1.79,10.03,2.53,15.05,6.84,15.05,12.94,0,5.18-2.57,9.09-7.71,11.75-3.95,1.99-8.83,2.99-14.62,2.99-17.65,0-26.48-7.68-26.48-23.04,0-3.58-1.8-5.36-5.4-5.36h-4c-1.47,0-2.73.53-3.8,1.6-1.07,1.07-1.6,2.33-1.6,3.8,0,25.2,13.73,37.8,41.19,37.8,10.61,0,19.17-2.13,25.67-6.4,7.69-5.07,11.54-12.73,11.54-23,0-15.6-9.12-25-27.35-28.2ZM701.8,109.18c-6.12,6.93-14.62,10.4-25.52,10.4s-19.11-3.4-25.03-10.2c-5.92-6.8-8.87-15.67-8.87-26.6s2.96-20.1,8.87-26.7c5.92-6.6,14.26-9.9,25.03-9.9s19.47,3.3,25.33,9.9c5.85,6.6,8.77,15.5,8.77,26.7s-2.86,19.87-8.58,26.4ZM712.17,45.98c-9.2-9.73-21.07-14.6-35.6-14.6s-26.5,4.77-35.5,14.3c-9,9.53-13.5,21.83-13.5,36.9s4.27,27.4,12.8,36.6c8.93,9.6,20.87,14.4,35.8,14.4s27-4.67,35.8-14c8.8-9.33,13.2-21.67,13.2-37s-4.33-27.4-13-36.6ZM610.97,66.98c0-11.47-3.93-20.4-11.8-26.8l.2.2c-6.91-5.73-15.81-8.6-26.7-8.6-9.17,0-17.01,2.2-23.52,6.6-.4,0-.73.13-.99.4-1.73,1.33-2.99,2.33-3.79,3v-2.4c0-1.33-.58-2.6-1.72-3.8-1.15-1.2-2.4-1.8-3.75-1.8h-3.85c-1.49,0-2.77.57-3.85,1.7-1.08,1.13-1.62,2.43-1.62,3.9v87c0,3.6,1.83,5.4,5.47,5.4h3.85c1.49,0,2.77-.53,3.85-1.6,1.08-1.07,1.62-2.33,1.62-3.8v-49.2c0-9.33,2.49-16.83,7.47-22.5,4.98-5.67,11.92-8.5,20.82-8.5,7.31,0,13.15,1.93,17.53,5.8,4.38,3.87,6.58,9.47,6.58,16.8v57.6c0,3.6,1.73,5.4,5.2,5.4h3.6c1.47,0,2.73-.53,3.8-1.6,1.07-1.07,1.6-2.33,1.6-3.8v-59.4ZM483.33,109.28c-5.9,6.87-13.88,10.3-23.95,10.3s-17.89-3.47-23.45-10.4c-.4-.4-.73-.67-.99-.8-4.77-6.4-7.16-14.87-7.16-25.4s2.65-19,7.95-25.8c5.7-7.33,13.58-11,23.65-11,11,0,19.28,3.47,24.85,10.4,5.3,6.27,7.95,15.07,7.95,26.4,0,10.67-2.95,19.43-8.85,26.3ZM506.98,37c0-3.75-1.83-5.62-5.47-5.62h-3.85c-1.49,0-2.77.59-3.85,1.76-1.08,1.17-1.62,2.51-1.62,4.02v7.22c-8.11-8.67-18.89-13-32.32-13-14.23,0-25.8,5.07-34.71,15.2-8.11,9.33-12.17,21.4-12.17,36.2s3.92,26.8,11.77,36c8.38,9.87,19.88,14.8,34.52,14.8,13.83,0,24.8-4.33,32.92-13v5.8c0,3.6,1.83,5.4,5.47,5.4h3.85c3.65,0,5.47-1.81,5.47-5.42V37ZM297.18,37.18c0-3.6-1.67-5.4-5-5.4-10.53,0-19.47,3.67-26.8,11l-1.4,1.4v-4.8c0-1.33-.53-2.6-1.6-3.8-1.07-1.2-2.27-1.8-3.6-1.8h-3.2c-1.33,0-2.53.6-3.6,1.8-1.07,1.2-1.6,2.47-1.6,3.8v87c0,3.6,1.73,5.4,5.2,5.4h3.2c1.33,0,2.53-.57,3.6-1.7,1.07-1.13,1.6-2.37,1.6-3.7v-34.4c0-13.2,2.13-23.8,6.4-31.8,4.93-9.33,12.2-14,21.8-14,.8,0,1.47-.33,2-1l3-3.4v-4.6ZM155.78,74.58c1.34-8.74,4.91-15.65,10.73-20.75,5.82-5.1,13.21-7.65,22.17-7.65,10.17,0,17.99,3.05,23.48,9.13,4.54,5.03,7.35,11.45,8.42,19.27h-64.8ZM236.38,79.02c0-14.48-4.33-26.04-13-34.68-8.67-8.64-20.2-12.96-34.6-12.96s-25.93,5-35,15c-8.54,9.47-12.8,21.6-12.8,36.4s3.93,27.8,11.8,37c7.87,9.2,19.6,13.8,35.2,13.8,23.87,0,38.93-10.13,45.2-30.4v-.8c0-3.73-1.87-5.6-5.6-5.6h-3.8c-2.8,0-4.54,1.4-5.2,4.2l.2-.4c-2.13,6.07-6.2,10.78-12.2,14.15-5.47,3.23-11.53,4.85-18.2,4.85-20.13,0-31-10.33-32.6-31h75c3.73,0,5.6-1.86,5.6-5.58v-3.98ZM126.38,96.18l-4.4-1.8.2.2c-.8-.4-1.6-.6-2.39-.6-2.66,0-4.59,1.95-5.78,5.85-1.33,6.45-4.85,11.42-10.57,14.92-5.19,3.22-11.23,4.84-18.15,4.84-10.51,0-18.68-3.27-24.53-9.8-5.58-6.13-8.38-14.53-8.38-25.2,0-11.6,2.96-20.9,8.88-27.9,5.92-7,14.59-10.5,26.03-10.5,14.63,0,23.34,6.21,26.13,18.64.66,2.78,2.46,4.16,5.38,4.16,1.06,0,1.93-.2,2.59-.6l3.99-2.2c1.46-.8,2.19-2.4,2.19-4.8v-1.2c-2-9.07-7.13-16.33-15.4-21.8-6.93-4.67-15.2-7-24.8-7-15.47,0-27.63,4.93-36.5,14.8-8.87,9.87-13.3,22.6-13.3,38.2,0,14.27,4.3,26.04,12.9,35.3,8.6,9.27,20.23,13.9,34.9,13.9,9.87,0,18.47-2.27,25.8-6.8l1.2-.4c9.07-6.27,14.6-14.6,16.6-25l-2.6-5.2Z"/>
  <g>
    <path class="cls-2" d="M359.49,18.29c14.76-1.04,28.67,4.16,39.86,13.55,1.23,1.04,5.08,4.28,5.85,5.25,1.91,2.4,1.39,3.92-.29,6.16-.76,1.02-7.98,8.34-8.74,8.78-4.29,2.49-7.19-3.04-9.98-5.28-21.4-17.14-54.81-4.1-59.73,22.64-5.97,32.49,31.62,60.16,58.56,38.69,1.93-1.54,5.27-6.31,7.62-6.18,1.43.07,10.7,8.26,11.14,9.68.67,2.18-.66,3.57-1.85,5.23-6.29,8.8-26.25,30.07-34.71,36.59-4.65,3.58-5.68,1.96-9.63-.91-17.6-12.82-42.5-36.48-49.67-57.27-12.44-36.04,13.98-74.3,51.58-76.94Z"/>
    <circle class="cls-2" cx="363.35" cy="76.71" r="16.46" transform="translate(229.42 423.08) rotate(-80.78)"/>
  </g>
</svg>